<?xml version="1.0" encoding="UTF-8"?>
<svg width="179" height="184.5" version="1.1" viewBox="0 0 198.4375 198.43752" xmlns="http://www.w3.org/2000/svg"><g transform="translate(-16.86 32.46)"><g transform="translate(-140 -395.7)"><path d="m156.9 383.6v138.9l19.84 8.364 19.84 8.364 19.84 8.364 19.84 8.364v-19.84l-19.84-8.364-19.84-8.364-19.84-8.364v-39.69l19.84 8.364 19.84 8.364 19.84 8.364v-19.84l-19.84-8.364-19.84-8.364-19.84-8.364v-39.69l19.84 8.364 19.84 8.364 19.84 8.364v-19.84l-19.84-8.364-19.84-8.364-19.84-8.364z" style="fill:#68e144"/><path d="m176.7 511.1 19.84-11.48 59.53 25.09-19.84 11.48z" style="fill:#ffe003"/><path d="m176.7 511.1 19.84-11.48v-19.84l-19.84-8.364z" style="fill:#3e9ded"/><path d="m176.7 451.5 19.84-11.48 59.53 25.09-19.84 11.48z" style="fill:#ffe003"/><path d="m176.7 451.5 19.84-11.48v-19.84l-19.84-8.364z" style="fill:#3e9ded"/><path d="m176.7 372.2-19.84 11.48 79.38 33.46 19.84-11.48zm59.53 44.94 19.84 8.387 19.84-11.46-19.84-8.387z" style="fill:#ffe003"/><path d="m276 414-19.84 11.46v138.9l19.84-11.46v-99.22l19.84-11.46v-19.84l-19.84 11.46z" style="fill:#3e9ded"/><path d="m355.3 368.2-19.84 11.46v19.84l-19.84 11.46v19.84l19.84-11.46v99.22l19.84-11.46v-119.1z" style="fill:#3e9ded"/><path d="m295.8 442.3 19.84-11.46v19.84l-19.84 11.46z" style="fill:#3e9ded"/><path d="m355.3 368.2-19.84-8.387-19.84 11.46 19.84 8.387z" style="fill:#ffe003"/><path d="m335.5 399.5-19.84-8.387-19.84 11.46 19.84 8.387z" style="fill:#ffe003"/><path d="m315.6 430.8-19.84-8.387v19.84z" style="fill:#ffe003"/><path d="m295.8 422.4-19.84-8.387v19.84z" style="fill:#ffe003"/><path d="m335.5 419.3v99.22l-19.84-8.387v-79.38z" style="fill:#003fbb"/><path d="m256.1 425.5-19.84-8.387v138.9l19.84 8.387z" style="fill:#003fbb"/><path d="m315.6 430.8v-19.84l-19.84-8.387v19.84z" style="fill:#003fbb"/><path d="m335.5 399.5v-19.84l-19.84-8.387v19.84z" style="fill:#003fbb"/><path d="m295.8 462.1-19.84-8.387 19.84-11.46z" style="fill:#003fbb"/></g></g></svg>
