<?xml version="1.0" encoding="UTF-8" standalone="no"?><!DOCTYPE svg PUBLIC "-//W3C//DTD SVG 1.1//EN" "http://www.w3.org/Graphics/SVG/1.1/DTD/svg11.dtd"><svg width="100%" height="100%" viewBox="0 0 128 128" version="1.1" xmlns="http://www.w3.org/2000/svg" xmlns:xlink="http://www.w3.org/1999/xlink" xml:space="preserve" xmlns:serif="http://www.serif.com/" style="fill-rule:evenodd;clip-rule:evenodd;stroke-linejoin:round;stroke-miterlimit:2;"><path d="M128,6.073l0,115.854c0,3.352 -2.721,6.073 -6.073,6.073l-115.854,0c-3.352,0 -6.073,-2.721 -6.073,-6.073l0,-115.854c0,-3.352 2.721,-6.073 6.073,-6.073l115.854,0c3.352,0 6.073,2.721 6.073,6.073Z" style="fill:#ffba00;"/><g><path d="M13.94,30.026c-0,-0 -3.584,-0 -3.584,3.625l0,60.747c0,3.576 3.528,3.576 3.528,3.576l12.28,0l0.122,-0.488l3.957,-15.828l67.514,-0l3.957,15.828l0.122,0.488l11.849,0c-0,0 3.959,0 3.959,-3.301l-0,-61.071c-0,-3.576 -3.576,-3.576 -3.576,-3.576l-100.128,-0Zm12.286,8.717l75.548,-0l0,4.023l-75.548,-0l-0,-4.023Zm-0,10.728l75.548,0l0,25.481l-75.548,0l-0,-25.481Zm4.023,4.024l0,17.434l29.682,0c1.314,-2.62 2.057,-5.578 2.057,-8.717c0,-3.139 -0.743,-6.097 -2.057,-8.717l-29.682,-0Zm34.078,-0c1.115,2.771 1.687,5.73 1.685,8.717c-0,3.079 -0.601,6.02 -1.685,8.717l7.352,0c-1.66,-2.604 -2.541,-5.629 -2.538,-8.717c-0,-3.203 0.932,-6.193 2.538,-8.717l-7.352,-0Zm12.445,-0c-2.231,2.223 -3.608,5.302 -3.608,8.717c0,3.415 1.377,6.494 3.608,8.717l17.372,0c2.23,-2.223 3.607,-5.302 3.607,-8.717c0,-3.415 -1.377,-6.494 -3.607,-8.717l-17.372,-0Zm-32.114,1.884c1.001,0.314 1.922,0.843 2.695,1.552l-1.144,0.66c1.127,0.903 1.924,2.204 2.167,3.681l1.131,-0.654c0.122,0.523 0.185,1.057 0.188,1.594c-0.002,0.522 -0.061,1.042 -0.176,1.551l-1.134,-0.654c-0.227,1.48 -1.011,2.788 -2.129,3.701l1.132,0.654c-0.781,0.721 -1.714,1.258 -2.73,1.573l-0,-1.291c-0.68,0.267 -1.405,0.405 -2.135,0.405c-0.751,-0 -1.471,-0.145 -2.136,-0.405l0,1.284c-1.008,-0.322 -1.933,-0.863 -2.707,-1.584l1.106,-0.638c-1.117,-0.914 -1.9,-2.222 -2.127,-3.704l-1.095,0.633c-0.113,-0.501 -0.171,-1.012 -0.174,-1.525c0.002,-0.529 0.063,-1.056 0.181,-1.571l1.097,0.634c0.242,-1.477 1.038,-2.779 2.165,-3.682l-1.121,-0.647c0.769,-0.704 1.682,-1.231 2.675,-1.546l0,1.293c0.68,-0.267 1.405,-0.404 2.136,-0.405c0.751,0 1.47,0.145 2.135,0.406l-0,-1.315Zm42.94,0.009c0.995,0.315 1.909,0.844 2.678,1.549l-1.128,0.652c1.127,0.902 1.925,2.203 2.167,3.68l1.109,-0.64c0.121,0.519 0.183,1.05 0.186,1.583c-0.002,0.517 -0.059,1.032 -0.172,1.537l-1.113,-0.643c-0.227,1.481 -1.012,2.789 -2.129,3.702l1.118,0.646c-0.778,0.72 -1.706,1.258 -2.717,1.575l-0,-1.286c-0.68,0.268 -1.405,0.405 -2.136,0.405c-0.751,0 -1.47,-0.144 -2.135,-0.405l0,1.295c-1.014,-0.319 -1.945,-0.861 -2.723,-1.585l1.122,-0.647c-1.117,-0.914 -1.901,-2.223 -2.127,-3.704l-1.117,0.646c-0.114,-0.504 -0.173,-1.019 -0.176,-1.536c0.002,-0.534 0.064,-1.065 0.185,-1.585l1.118,0.646c0.241,-1.478 1.037,-2.779 2.164,-3.682l-1.134,-0.655c0.773,-0.705 1.69,-1.232 2.688,-1.544l0,1.299c1.372,-0.54 2.899,-0.54 4.271,-0l-0,-1.302l0.001,-0.001Zm-70.089,31.858c1.961,-0 3.576,1.614 3.576,3.576c-0,1.962 -1.615,3.576 -3.576,3.576c-1.962,0 -3.577,-1.614 -3.577,-3.576c0,-1.962 1.615,-3.576 3.577,-3.576m92.982,-0c1.962,-0 3.577,1.614 3.577,3.576c-0,1.962 -1.615,3.576 -3.577,3.576c-1.961,0 -3.576,-1.614 -3.576,-3.576c0,-1.962 1.615,-3.576 3.576,-3.576" style="fill:#e7498a;fill-rule:nonzero;"/><path d="M30.249,53.495l-0,17.434l29.682,0c1.314,-2.62 2.057,-5.578 2.057,-8.717c0,-3.139 -0.743,-6.097 -2.057,-8.717l-29.682,-0Zm34.078,-0c1.115,2.771 1.687,5.73 1.685,8.717c-0,3.079 -0.601,6.02 -1.685,8.717l7.352,0c-1.661,-2.604 -2.541,-5.629 -2.538,-8.717c-0,-3.203 0.932,-6.193 2.538,-8.717l-7.352,-0Zm12.445,-0c-2.231,2.223 -3.608,5.302 -3.608,8.717c0,3.415 1.377,6.494 3.608,8.717l17.372,0c2.23,-2.223 3.607,-5.302 3.607,-8.717c0,-3.415 -1.377,-6.494 -3.607,-8.717l-17.372,-0Zm-32.114,1.884c1.001,0.314 1.921,0.843 2.695,1.552l-1.144,0.66c1.127,0.903 1.924,2.204 2.166,3.681l1.131,-0.654c0.123,0.523 0.186,1.057 0.189,1.594c-0.002,0.522 -0.061,1.042 -0.176,1.551l-1.134,-0.654c-0.227,1.48 -1.011,2.788 -2.129,3.701l1.132,0.654c-0.782,0.721 -1.714,1.258 -2.73,1.573l-0,-1.291c-0.68,0.267 -1.405,0.405 -2.136,0.405c-0.751,-0 -1.47,-0.145 -2.135,-0.405l0,1.284c-1.008,-0.322 -1.933,-0.863 -2.707,-1.584l1.105,-0.638c-1.116,-0.914 -1.899,-2.222 -2.126,-3.704l-1.096,0.633c-0.112,-0.501 -0.17,-1.012 -0.173,-1.525c0.002,-0.529 0.063,-1.056 0.181,-1.571l1.097,0.634c0.242,-1.477 1.038,-2.779 2.165,-3.682l-1.121,-0.647c0.769,-0.704 1.682,-1.231 2.675,-1.546l0,1.293c0.68,-0.267 1.405,-0.404 2.135,-0.405c0.751,0 1.471,0.145 2.136,0.406l-0,-1.315Zm42.939,0.009c0.996,0.315 1.91,0.844 2.679,1.549l-1.128,0.652c1.127,0.902 1.924,2.203 2.166,3.68l1.11,-0.64c0.121,0.519 0.183,1.05 0.186,1.583c-0.002,0.517 -0.059,1.032 -0.172,1.537l-1.113,-0.643c-0.227,1.481 -1.012,2.789 -2.129,3.702l1.118,0.646c-0.778,0.72 -1.706,1.258 -2.717,1.575l-0,-1.286c-0.68,0.268 -1.405,0.405 -2.136,0.405c-0.751,0 -1.47,-0.144 -2.135,-0.405l0,1.295c-1.014,-0.319 -1.945,-0.861 -2.723,-1.585l1.122,-0.647c-1.117,-0.914 -1.901,-2.223 -2.127,-3.704l-1.118,0.646c-0.113,-0.504 -0.172,-1.019 -0.175,-1.536c0.002,-0.534 0.064,-1.065 0.185,-1.585l1.118,0.646c0.241,-1.478 1.037,-2.779 2.164,-3.682l-1.134,-0.655c0.772,-0.705 1.69,-1.232 2.688,-1.544l0,1.299c1.372,-0.54 2.899,-0.54 4.271,-0l-0,-1.302l0,-0.001Z" style="fill-rule:nonzero;"/><path d="M33.384,85.681l-3.073,12.293l67.378,0l-3.073,-12.293l-61.232,0Zm9.159,3.129l10.728,0l0,4.024l-10.728,-0l-0,-4.024Zm32.186,0l10.729,0l-0,4.024l-10.729,-0l0,-4.024Z" style="fill:#ebebeb;fill-rule:nonzero;"/></g></svg>